HIERARCHY
ROOT Hips
{
	OFFSET	0	0	0
	CHANNELS 6  Xposition Yposition Zposition Xrotation Yrotation Zrotation
	JOINT Spine
	{
		OFFSET	0	6.86795	1.37906
		CHANNELS 3  Xrotation Yrotation Zrotation
		JOINT Spine1
		{
			OFFSET	0	11.7606	-2.1001
			CHANNELS 3  Xrotation Yrotation Zrotation
			JOINT Spine2
			{
				OFFSET	0	8.91491	0.955545
				CHANNELS 3  Xrotation Yrotation Zrotation
				JOINT Spine3
				{
					OFFSET	0	10.6685	3.17115
					CHANNELS 3  Xrotation Yrotation Zrotation
					JOINT Spine4
					{
						OFFSET	0	15.7927	-1.61708
						CHANNELS 3  Xrotation Yrotation Zrotation
						JOINT Neck
						{
							OFFSET	0	7.53935	-5.28175
							CHANNELS 3  Xrotation Yrotation Zrotation
							JOINT Head
							{
								OFFSET	0	9.05142	-2.70913
								CHANNELS 3  Xrotation Yrotation Zrotation
								End Site
								{
									OFFSET	0	18.8799	-0.913543
								}
							}
						}
					}
					JOINT LeftShoulder
					{
						OFFSET	-4.53621	19.1949	-9.05142
						CHANNELS 3  Xrotation Yrotation Zrotation
						JOINT LeftArm
						{
							OFFSET	-9.8955	-2.70912	3.47568
							CHANNELS 3  Xrotation Yrotation Zrotation
							JOINT LeftForeArm
							{
								OFFSET	-33.3495	-1.52213	2.38045
								CHANNELS 3  Xrotation Yrotation Zrotation
								JOINT LeftHand
								{
									OFFSET	-27.054	-1.86958	1.93108
									CHANNELS 3  Xrotation Yrotation Zrotation
									End Site
									{
										OFFSET	-9.87335	-0.682306	0.704704
									}
								}
							}
						}
					}
					JOINT RightShoulder
					{
						OFFSET	4.53621	19.1949	-9.05142
						CHANNELS 3  Xrotation Yrotation Zrotation
						JOINT RightArm
						{
							OFFSET	9.8955	-2.70912	3.47568
							CHANNELS 3  Xrotation Yrotation Zrotation
							JOINT RightForeArm
							{
								OFFSET	33.3495	-1.52213	2.38045
								CHANNELS 3  Xrotation Yrotation Zrotation
								JOINT RightHand
								{
									OFFSET	27.054	-1.86958	1.93108
									CHANNELS 3  Xrotation Yrotation Zrotation
									End Site
									{
										OFFSET	9.87335	-0.682306	0.704704
									}
								}
							}
						}
					}
				}
			}
		}
	}
	JOINT LeftUpLeg
	{
		OFFSET	-9.35843	-3.43397	-0.689532
		CHANNELS 3  Xrotation Yrotation Zrotation
		JOINT LeftLeg
		{
			OFFSET	-2.06148	-40.3938	-0.631444
			CHANNELS 3  Xrotation Yrotation Zrotation
			JOINT LeftFoot
			{
				OFFSET	-2.01493	-37.1416	3.19418
				CHANNELS 3  Xrotation Yrotation Zrotation
				JOINT LeftToeBase
				{
					OFFSET	0	-4.59973	-12.2169
					CHANNELS 3  Xrotation Yrotation Zrotation
					End Site
					{
						OFFSET	0	-1.83989	-7.35956
					}
				}
			}
		}
	}
	JOINT RightUpLeg
	{
		OFFSET	9.35843	-3.43397	-0.689532
		CHANNELS 3  Xrotation Yrotation Zrotation
		JOINT RightLeg
		{
			OFFSET	2.06148	-40.3938	-0.631444
			CHANNELS 3  Xrotation Yrotation Zrotation
			JOINT RightFoot
			{
				OFFSET	2.01493	-37.1416	3.19418
				CHANNELS 3  Xrotation Yrotation Zrotation
				JOINT RightToeBase
				{
					OFFSET	0	-4.59973	-12.2169
					CHANNELS 3  Xrotation Yrotation Zrotation
					End Site
					{
						OFFSET	0	-1.83989	-7.35956
					}
				}
			}
		}
	}
}
MOTION
Frames: 9
Frame Time: 0.020408
 -126.7 87.9846 108.854 26.566 -77.0919 33.2656 3.87412e-05 0.00250877 -0.88471 172.885 179.995 178.525 172.344 179.985 178.525 173.634 179.997 179.115 1.4143 -0.00727876 -0.294813 10.8426 -1.77086 1.63124 3.25679 -4.81429 0.276058 179.66 -177.469 179.331 7.6716 -13.8516 57.9261 11.5119 -78.8403 9.49558 -0 7.61057 -22.6173 1.39343 -18.2644 -2.11584 90.2061 108.85 -155.55 1.57472 6.71459 1.76196 -0 -13.5153 -2.92234 6.23617 -16.4351 -7.50999 150.328 176.966 179.722 6.96348 -0.00599431 10.0682 179.245 180 -180 10.8706 -10.9857 5.45922 150.517 -170.045 -179.972 167.251 179.977 172.511 0.154332 0 0
 -127.039 88.5969 108.491 27.7963 -77.8649 34.6473 9.51569e-05 0.0064058 -0.851055 172.803 179.987 178.582 172.285 179.962 178.582 173.646 179.994 179.149 1.23201 -0.00609955 -0.283619 10.3983 -1.75263 1.4624 3.12219 -4.56302 0.227358 179.608 -177.536 179.228 8.83873 -13.0573 57.6206 10.9439 -80.0421 8.93485 -0 7.0745 -23.4436 1.2044 -18.6836 -1.81481 90.8087 108.287 -156.768 1.47732 6.27221 1.74283 -0 -13.0837 -2.39701 5.46736 -15.8019 -7.48556 152.303 176.607 179.661 5.42498 4.01198e-05 9.93464 179.231 180 -180 11.6112 -11.2226 5.34277 150.546 -169.454 -179.833 163.966 -179.988 172.497 0.148648 0 0
 -127.37 89.0939 108.047 28.3806 -78.543 35.347 5.73642e-05 0.00402404 -0.816717 172.733 179.992 178.639 172.234 179.976 178.639 173.659 179.996 179.183 1.06876 -0.00507794 -0.272192 9.99385 -1.56879 1.13546 2.99932 -3.85704 0.153979 179.603 -177.932 179.221 9.74537 -11.7861 57.6761 10.4386 -81.9159 8.57611 -0 6.35303 -24.4194 0.891841 -19.7183 -1.31815 92.2289 108.053 -158.552 1.26163 6.93651 1.85856 -0 -12.2603 -1.47206 4.44707 -15.2325 -7.51763 154.993 176.043 179.611 4.31279 0.00780747 9.65627 179.219 180 -180 12.4145 -11.4472 5.10578 150.141 -168.515 -179.744 161.428 -179.904 172.499 0.143761 0 0
 -127.732 89.2282 107.532 28.4988 -79.1119 35.5074 0.000199195 0.0149837 -0.761652 172.668 179.97 178.731 172.202 179.91 178.731 173.709 179.985 179.238 0.828249 -0.00366996 -0.253857 9.36036 -1.17236 0.995305 2.80904 -3.0766 0.146767 179.663 -177.816 179.339 10.5212 -10.6756 58.1363 11.2324 -85.0098 9.41271 -0 5.30829 -25.349 0.650233 -20.9861 -0.937806 94.3133 108.074 -160.739 0.952254 8.55368 1.88871 -0 -11.1789 -0.331592 3.23962 -14.782 -7.57633 158.409 175.18 179.614 4.36768 -0.0141357 9.1883 179.208 180 -180 13.6572 -11.677 4.63174 150.071 -167.473 -179.713 160.467 -179.914 172.455 0.141262 0 0
 -127.824 89.4547 107.395 30.3573 -79.8711 37.4791 0.000198839 0.0153776 -0.740816 172.708 179.969 178.765 172.212 179.908 178.765 173.647 179.985 179.259 1.04861 -0.00451919 -0.246897 9.94873 -0.946828 0.690558 2.98505 -2.33503 0.0939721 179.526 -177.951 179.069 10.6678 -9.19274 58.1628 10.5079 -87.3408 8.69729 -0 4.38404 -26.2031 0.403002 -22.1712 -0.567529 96.4885 108.224 -162.809 0.62612 10.459 1.90961 -0 -10.0566 0.860254 1.57967 -14.2841 -7.90748 161.595 174.351 179.642 4.35 -0.0149132 8.8029 179.196 180 -180 14.1948 -11.7498 4.22151 149.674 -166.503 -179.781 159.668 -179.963 172.421 0.138532 0 0
 -127.992 89.5337 107.061 32.5035 -81.0783 39.5944 8.98038e-06 0.000724689 -0.709976 172.754 179.999 178.817 172.237 179.996 178.817 173.618 179.999 179.29 1.20379 -0.00497189 -0.236606 10.3433 -0.616835 0.596332 3.10349 -1.71438 0.100817 179.516 -178.472 179.053 10.5008 -7.35399 58.3871 0.336087 -89.1285 -1.43381 -0 3.58278 -27.0232 0.238448 -22.9535 -0.33037 98.661 108.345 -164.81 0.27379 12.9359 1.93673 -0 -8.82037 2.08049 0.35996 -13.8507 -8.0483 164.676 173.572 179.84 4.65873 0.0165591 8.48783 179.181 180 -180 14.4092 -11.8427 3.85727 149.043 -165.387 -179.804 159.993 -179.931 172.419 0.142599 0 0
 -127.935 89.5931 107.128 35.4859 -82.2295 42.5828 180 -179.997 179.311 172.782 -179.994 178.852 172.235 -179.983 178.852 173.548 -179.997 179.311 1.42149 -0.00569756 -0.229602 10.9339 -0.0257703 0.681873 3.28119 -0.952651 0.176095 179.48 -179.249 178.99 10.4797 -5.49667 58.5367 23.684 -91.1224 21.9729 -0 2.84092 -27.8211 179.802 -157.057 -179.726 100.968 108.197 -168.2 179.932 163.903 -177.975 -0 -7.41558 3.33139 179.001 -166.519 171.703 167.782 172.982 179.768 5.11693 0.00870643 8.24323 179.166 180 -180 14.867 -11.9497 3.28566 148.735 -164.489 -179.916 160.68 -179.964 172.349 0.146722 0 0
 -127.849 89.6199 107.069 37.579 -83.1618 44.6831 180 -180 179.33 172.819 -180 178.883 172.235 -179.999 178.883 173.462 -180 179.33 1.69182 -0.00659689 -0.223347 11.668 0.567816 0.798161 3.50192 -0.251995 0.258471 179.494 -179.941 179.025 10.3232 -3.83635 58.8033 17.2046 -92.9772 15.4992 -0 2.09849 -28.5909 179.46 -157.136 -179.251 102.997 107.928 -171.168 179.567 160.721 -177.8 -0 -6.00108 4.53358 177.94 -166.819 171.576 170.673 172.415 179.759 5.54157 0.0307722 8.04723 179.149 180 -180 15.2626 -11.9972 2.78724 148.443 -163.663 -179.954 161.228 -179.973 172.289 0.150366 0 0
 -127.8 89.5355 107.001 40.3305 -84.1159 47.4227 180 -179.997 179.359 172.856 -179.994 178.932 172.235 -179.981 178.932 173.373 -179.997 179.359 1.96801 -0.0073382 -0.213556 12.4227 0.725569 0.670984 3.72793 0.12719 0.238908 179.593 179.186 179.221 10.1081 -2.19556 59.2777 15.8352 -94.8942 14.1105 -0 1.26443 -29.4235 179.255 -157.412 -178.96 105.071 108.026 -173.936 179.118 158.38 -177.79 -0 -4.69812 5.74545 177.176 -167.09 171.321 173.199 171.878 179.888 6.27857 0.0386876 7.89413 179.13 180 -180 15.3469 -11.9467 2.45427 147.913 -162.919 -179.846 162.403 -179.986 172.234 0.154585 0 0
